<!DOCTYPE svg PUBLIC "-//W3C//DTD SVG 1.1//EN" "http://www.w3.org/Graphics/SVG/1.1/DTD/svg11.dtd">
<!-- Uploaded to: SVG Repo, www.svgrepo.com, Transformed by: SVG Repo Mixer Tools -->
<svg width="800px" height="800px" viewBox="-2 -2 24.00 24.00" xmlns="http://www.w3.org/2000/svg" fill="none" stroke="#ffffff" data-darkreader-inline-stroke="" style="--darkreader-inline-stroke: #ffffff;" stroke-width="1">
<g id="SVGRepo_bgCarrier" stroke-width="0"/>
<g id="SVGRepo_tracerCarrier" stroke-linecap="round" stroke-linejoin="round"/>
<g id="SVGRepo_iconCarrier"> <path fill="#ffffff" fill-rule="evenodd" d="M18.885 2a1 1 0 00-1-1h-6a1 1 0 100 2h3.586L9.178 9.293a1 1 0 101.414 1.414l6.293-6.293V8a1 1 0 102 0V2zM3.009 3a2.012 2.012 0 00-1.998 2.218c.148 1.453.374 3.978.374 5.782 0 1.746-.212 4.17-.36 5.642a2.028 2.028 0 002.218 2.218c1.473-.148 3.896-.36 5.642-.36 1.804 0 4.33.226 5.782.374a2.012 2.012 0 002.218-1.998V12a1 1 0 10-2 0v4.878l-.003.003a.018.018 0 01-.006.003h-.006c-1.451-.147-4.068-.384-5.985-.384-1.857 0-4.37.222-5.842.37h-.008a.034.034 0 01-.012-.008.033.033 0 01-.008-.012.01.01 0 010-.002v-.006c.148-1.473.37-3.985.37-5.842 0-1.917-.237-4.534-.385-5.985v-.006l.004-.006A.016.016 0 013.007 5h4.878a1 1 0 000-2H3.009z" data-darkreader-inline-fill="" style="--darkreader-inline-fill: #202020;"/> </g>
</svg>