<svg width="56" height="51" viewBox="0 0 56 51" fill="none" xmlns="http://www.w3.org/2000/svg">
<path d="M20.2 19.2L20.4 19.3L16.5 30.8H16.2H3.9L0 19.3L10.2 12.2L20.2 19.2ZM21.4 18.6L21.3 18.4L17.5 7.1L27.7 0L37.9 7.1L34.1 18.4L34 18.6H21.4ZM16.7 32.2L16.9 32.1L27.1 39.2L27 39.4L23.2 50.7H10.6L6.7 39.2L16.7 32.2ZM28.4 39.4L28.3 39.2L38.5 32.1L38.7 32.2L48.7 39.2L44.8 50.7H32.2L28.4 39.4ZM39.2 30.9H39L35.1 19.4L35.3 19.3L45.3 12.3L55.5 19.4L51.6 30.9H39.2Z" fill="white"/>
<path d="M24.3001 25.5C24.1001 25.9 24.0001 26.3 23.9001 26.5C23.8001 26.7 23.7001 26.9 23.6001 27.1C23.5001 27.2 23.5001 27.3 23.4001 27.3H23.3001H23.2001C23.1001 27.3 23.0001 27.2 22.9001 27.2C22.8001 27.1 22.8001 27.1 22.8001 27C22.8001 27 22.8001 27 22.8001 26.9C22.8001 26.9 22.8001 26.9 22.8001 26.8C23.0001 26.4 23.2001 26 23.4001 25.6C23.6001 25.2 23.7001 24.8 23.9001 24.4C23.9001 24.2 24.0001 24.2 24.1001 24.2C24.1001 24.2 24.2001 24.2 24.3001 24.2C24.5001 24.3 24.6001 24.4 24.6001 24.5V24.6V24.8L27.3001 24.6V23.6C27.3001 23.4 27.2001 23.3 27.1001 23.1C27.1001 23 27.0001 23 27.0001 23C27.0001 22.9 27.1001 22.9 27.2001 22.9H27.3001C27.4001 22.9 27.5001 22.9 27.6001 23C27.7001 23 27.8001 23.1 27.9001 23.1C28.0001 23.1 28.0001 23.2 28.0001 23.3V24.5L32.0001 24.3H32.2001C32.4001 24.3 32.5001 24.3 32.6001 24.4C32.7001 24.5 32.8001 24.6 32.8001 24.7C32.8001 24.8 32.8001 24.8 32.7001 24.9C32.6001 24.9 32.6001 25 32.6001 25.1C32.6001 25.1 32.6001 25.2 32.5001 25.3C32.4001 25.4 32.3001 25.6 32.2001 25.7C32.1001 25.9 32.0001 26 31.8001 26.2C31.7001 26.4 31.5001 26.5 31.4001 26.6C31.3001 26.7 31.2001 26.8 31.1001 26.8C31.0001 26.8 31.0001 26.8 31.0001 26.7C31.0001 26.6 31.0001 26.5 31.1001 26.4C31.3001 26 31.6001 25.5 31.7001 25L24.3001 25.5ZM28.4001 30.2C28.4001 30.4 28.5001 30.7 28.5001 31C28.5001 31.3 28.5001 31.5 28.5001 31.8V32C28.5001 32.5 28.5001 32.8 28.4001 33.1C28.4001 33.4 28.3001 33.6 28.2001 33.7C28.1001 33.8 28.0001 33.9 28.0001 34C27.9001 34 27.8001 34.1 27.8001 34.1C27.7001 34.1 27.5001 34 27.3001 33.9C27.1001 33.8 26.9001 33.7 26.6001 33.5C26.4001 33.3 26.1001 33.2 25.9001 33C25.7001 32.8 25.5001 32.7 25.4001 32.5C25.3001 32.4 25.2001 32.3 25.2001 32.2C25.2001 32.2 25.2001 32.1 25.3001 32.1C25.4001 32.1 25.5001 32.1 25.6001 32.2C26.2001 32.5 26.6001 32.7 27.0001 32.8C27.4001 32.9 27.5001 33 27.6001 33C27.6001 33 27.7001 33 27.7001 32.9C27.7001 32.7 27.8001 32.5 27.8001 32.3C27.8001 32.1 27.8001 31.9 27.8001 31.6C27.8001 31.3 27.8001 31.1 27.8001 30.8C27.8001 30.5 27.8001 30.3 27.7001 30.1L23.6001 30.3C23.5001 30.3 23.5001 30.3 23.4001 30.3C23.3001 30.3 23.3001 30.3 23.2001 30.3C23.0001 30.3 22.9001 30.3 22.9001 30.2C22.8001 30.1 22.8001 30 22.7001 30C22.6001 29.9 22.6001 29.8 22.6001 29.8V29.7C22.6001 29.7 22.6001 29.6 22.7001 29.6C22.7001 29.6 22.7001 29.6 22.8001 29.6C23.0001 29.6 23.1001 29.7 23.3001 29.7H23.2001L27.4001 29.5C27.3001 29.2 27.2001 28.9 27.1001 28.6C27.1001 28.5 27.0001 28.4 27.0001 28.4C27.0001 28.3 27.0001 28.2 27.1001 28.2C27.2001 28.2 27.2001 28.1 27.3001 28.1C27.4001 28.1 27.4001 28.1 27.4001 28.1C27.5001 28.1 27.6001 28.2 27.6001 28.3V28.4C27.9001 28.2 28.2001 28 28.5001 27.7C28.8001 27.5 29.0001 27.2 29.2001 27L25.7001 27.3C25.6001 27.3 25.6001 27.3 25.5001 27.3C25.4001 27.3 25.4001 27.3 25.3001 27.3C25.1001 27.3 25.0001 27.3 25.0001 27.2C24.9001 27.1 24.8001 26.9 24.7001 26.8C24.7001 26.7 24.6001 26.6 24.6001 26.6C24.6001 26.5 24.6001 26.5 24.7001 26.5H24.8001C24.9001 26.5 25.0001 26.5 25.0001 26.5C25.1001 26.5 25.2001 26.5 25.2001 26.5H25.3001H25.4001L29.5001 26.2H29.6001H29.7001C29.8001 26.2 29.9001 26.2 30.0001 26.3C30.1001 26.4 30.2001 26.4 30.2001 26.5C30.3001 26.6 30.3001 26.6 30.3001 26.7C30.3001 26.8 30.3001 26.8 30.2001 26.9C30.1001 27 30.1001 27 30.0001 27C29.3001 27.7 28.5001 28.3 27.8001 28.8L27.9001 29.2L31.4001 29C31.5001 29 31.6001 29 31.7001 29C31.8001 29 31.9001 29 32.0001 28.9H32.1001C32.2001 28.9 32.2001 28.9 32.4001 29C32.5001 29.1 32.6001 29.1 32.7001 29.2C32.8001 29.3 32.8001 29.4 32.8001 29.5C32.8001 29.6 32.8001 29.6 32.7001 29.6C32.6001 29.6 32.6001 29.6 32.5001 29.6L28.4001 30.2Z" fill="white"/>
</svg>
