<svg width="100" height="100" viewBox="0 0 100 100" fill="none" xmlns="http://www.w3.org/2000/svg">
<g clip-path="url(#clip0_33303_18151)">
<path d="M16.4205 70C15.9952 70 15.6472 69.8647 15.3765 69.594C15.1445 69.3233 15.0285 68.9947 15.0285 68.608V38.564L6.21249 45.35C5.86449 45.582 5.51649 45.6787 5.16849 45.64C4.82049 45.5627 4.51116 45.35 4.24049 45.002L1.80449 41.87C1.57249 41.522 1.47583 41.1547 1.51449 40.768C1.59183 40.3813 1.80449 40.072 2.15249 39.84L15.1445 29.806C15.3765 29.6127 15.6085 29.4967 15.8405 29.458C16.0725 29.4193 16.3238 29.4 16.5945 29.4H21.6985C22.0852 29.4 22.4138 29.5353 22.6845 29.806C22.9552 30.0767 23.0905 30.4053 23.0905 30.792V68.608C23.0905 68.9947 22.9552 69.3233 22.6845 69.594C22.4138 69.8647 22.0852 70 21.6985 70H16.4205ZM31.2041 70C30.8175 70 30.4888 69.8647 30.2181 69.594C29.9475 69.3233 29.8121 68.9947 29.8121 68.608V65.65C29.8121 65.302 29.8895 64.896 30.0441 64.432C30.2375 63.9293 30.6435 63.4267 31.2621 62.924L40.4261 53.818C42.9781 51.8073 45.0275 50.106 46.5741 48.714C48.1595 47.2833 49.3001 45.988 49.9961 44.828C50.7308 43.6293 51.0982 42.45 51.0982 41.29C51.0982 39.55 50.6148 38.1387 49.6481 37.056C48.7201 35.9733 47.2315 35.432 45.1821 35.432C43.8288 35.432 42.6881 35.722 41.7601 36.302C40.8321 36.8433 40.0975 37.578 39.5561 38.506C39.0535 39.434 38.7055 40.4587 38.5121 41.58C38.4348 42.0827 38.2221 42.4307 37.8741 42.624C37.5261 42.8173 37.1781 42.914 36.8301 42.914H31.6681C31.3201 42.914 31.0301 42.798 30.7981 42.566C30.5661 42.334 30.4501 42.0633 30.4501 41.754C30.4888 40.0913 30.8368 38.4867 31.4941 36.94C32.1515 35.3547 33.0988 33.9627 34.3361 32.764C35.6121 31.5267 37.1588 30.5407 38.9761 29.806C40.7935 29.0713 42.8428 28.704 45.1241 28.704C48.3335 28.704 50.9821 29.2453 53.0701 30.328C55.1968 31.4107 56.7822 32.88 57.8261 34.736C58.9088 36.592 59.4502 38.68 59.4502 41C59.4502 42.8173 59.1022 44.4993 58.4062 46.046C57.7102 47.554 56.7048 49.0233 55.3902 50.454C54.0755 51.846 52.4901 53.2767 50.6341 54.746L42.3981 63.098H58.9282C59.3535 63.098 59.6821 63.2333 59.9141 63.504C60.1848 63.736 60.3202 64.0647 60.3202 64.49V68.608C60.3202 68.9947 60.1848 69.3233 59.9141 69.594C59.6821 69.8647 59.3535 70 58.9282 70H31.2041ZM81.1503 70.58C78.4436 70.58 76.1043 70.2513 74.1323 69.594C72.1603 68.9367 70.517 68.086 69.2023 67.042C67.9263 65.9593 66.9596 64.7993 66.3023 63.562C65.645 62.286 65.297 61.0293 65.2583 59.792C65.2583 59.444 65.3743 59.1733 65.6063 58.98C65.877 58.748 66.1863 58.632 66.5343 58.632H71.7543C72.141 58.632 72.4696 58.7093 72.7403 58.864C73.011 59.0187 73.243 59.328 73.4363 59.792C73.7843 60.836 74.345 61.6673 75.1183 62.286C75.9303 62.9047 76.8583 63.3493 77.9023 63.62C78.9463 63.852 80.0483 63.968 81.2083 63.968C83.5283 63.968 85.365 63.4267 86.7183 62.344C88.1103 61.2227 88.8063 59.6373 88.8063 57.588C88.8063 55.5387 88.1683 54.0693 86.8923 53.18C85.6163 52.252 83.8376 51.788 81.5563 51.788H75.5823C75.157 51.788 74.809 51.672 74.5383 51.44C74.2676 51.1693 74.1323 50.8213 74.1323 50.396V47.96C74.1323 47.5733 74.2096 47.2447 74.3643 46.974C74.5576 46.6647 74.751 46.4133 74.9443 46.22L85.3263 36.07H68.7383C68.313 36.07 67.965 35.9347 67.6943 35.664C67.4623 35.3933 67.3463 35.0647 67.3463 34.678V30.85C67.3463 30.4247 67.4623 30.0767 67.6943 29.806C67.965 29.5353 68.313 29.4 68.7383 29.4H93.6203C94.0456 29.4 94.3936 29.5353 94.6643 29.806C94.935 30.0767 95.0703 30.4247 95.0703 30.85V34.33C95.0703 34.678 94.993 34.9873 94.8383 35.258C94.6836 35.5287 94.5096 35.7607 94.3163 35.954L84.2823 46.278L84.9783 46.336C87.337 46.5293 89.425 47.0707 91.2423 47.96C93.0983 48.8107 94.529 50.0673 95.5343 51.73C96.5783 53.3927 97.1003 55.4807 97.1003 57.994C97.1003 60.6233 96.4043 62.8853 95.0123 64.78C93.659 66.636 91.7836 68.0667 89.3863 69.072C86.989 70.0773 84.2436 70.58 81.1503 70.58Z" fill="white"/>
</g>
<defs>
<clipPath id="clip0_33303_18151">
<rect width="100" height="100" fill="white"/>
</clipPath>
</defs>
</svg>
